<?xml version="1.0" encoding="UTF-8"?>
<svg width="540px" height="264px" viewBox="0 0 540 264" version="1.1" xmlns="http://www.w3.org/2000/svg" xmlns:xlink="http://www.w3.org/1999/xlink">
    <!-- Generator: Sketch 59.1 (86144) - https://sketch.com -->
    <title>Group 13</title>
    <desc>Created with Sketch.</desc>
    <g id="Page-1" stroke="none" stroke-width="1" fill="none" fill-rule="evenodd">
        <g id="Group-13">
            <rect id="Rectangle" fill="#2E3336" x="0" y="0" width="540" height="264"></rect>
            <g id="wejam-logo" transform="translate(131.000000, 17.000000)">
                <path d="M59.8983553,182.908472 C53.6792452,188.667632 45.2132115,192 34.5,192 C21.0360406,192 9.45507051,188.837083 0,178.867924 C0,178.867924 15.8881579,163.018867 15.8881579,163.018867 C18.1578947,165.735849 41.7631578,176.694471 41.7631578,156.992379 L41.7631578,118.673747 L28.1901315,118.673747 L28.1901315,96 L69,96 L69,158.943396 C69,169.282677 66.1174653,177.149311 59.8983553,182.908472 Z" id="Path" fill="#FF9D00" fill-rule="nonzero"></path>
                <path d="M113.7,116 C124.206226,116 132.405526,118.356632 138.298148,123.069964 C144.190771,127.783298 147,134.703746 147,143.142858 L147,191.095238 L120.506173,191.095238 L120.506173,183.857142 C118.679013,185.738031 115.093229,187.960012 111.39321,189.576012 C107.693192,191.192012 103.422246,192 98.5802468,192 C90.7234175,192 84.5568126,189.912698 80.080247,185.738031 C75.6036813,181.563365 73,175.522402 73,168.519735 C73,161.427291 75.4438028,155.973373 80.3314815,152.157818 C85.2191603,148.342262 92.3678543,146.389625 101.777778,146.299847 L120.003704,146.299847 L120.003704,146.030515 C120.003704,142.978071 118.907419,140.598995 116.714815,138.893218 C114.522211,137.18744 111.324712,136.334564 107.122222,136.334564 C104.107392,136.334564 100.612983,136.783447 96.6388889,137.681224 C95.4668419,137.945998 94.2928137,138.245911 93.1168009,138.580961 L93.1107751,138.575046 L93.0634066,138.528545 C92.1018829,137.584648 78.4688599,124.20153 77.8202134,123.564774 L77.7962964,123.541295 L77.7962964,123.541295 C90.4037673,118.51374 102.371548,116 113.7,116 Z M120.506173,159.428571 L107.396296,159.428571 C101.823429,159.428571 99.0370373,161.921079 99.0370373,166.499745 C99.0370373,168.833967 99.767894,170.629496 101.22963,171.886385 C102.691366,173.143274 104.7469,173.771708 107.396296,173.771708 C110.228409,173.771708 112.786409,173.098386 115.070371,171.751719 C117.354332,170.405052 119.50123,168.096127 120.506173,165.761905 L120.506173,159.428571 Z" id="Combined-Shape" fill="#FF9D00" fill-rule="nonzero"></path>
                <path d="M264.299999,118.464674 C268.349295,120.774469 271.478249,124.05795 273.686957,128.315218 C275.895663,132.572486 277,137.50903 277,143.125 L277,190 L249.391304,190 L249.391304,151.050725 C249.391304,147.427518 248.678089,144.483707 246.791485,142.309783 C244.904881,140.135859 242.397117,139.048913 239.268116,139.048913 C235.678968,139.139493 232.826097,140.498176 230.70942,143.125 C228.592743,145.751825 227.304347,149.19382 227.304347,153.451087 L227.304347,190 L199.695653,190 L199.695653,151.050725 C199.695653,147.427518 198.70635,144.483707 196.819746,142.309783 C194.933142,140.135859 192.425378,139.048913 189.296377,139.048913 C185.707228,139.139493 182.831351,140.498176 180.668659,143.125 C178.505967,145.751825 177.608696,149.19382 177.608696,153.451087 L177.608696,190 L150,190 L150,115.724638 L177.608696,115.724638 L177.608696,127.5 C180.18552,123.514473 183.268459,120.321569 187.225724,118.192935 C191.182991,116.064301 195.692366,115 200.753985,115 C206.551841,115 211.613384,116.403972 215.938768,119.211957 C220.264152,122.019942 223.43912,126.0507 225.463768,131.123189 C227.856534,125.960119 231.238565,121.906717 235.609963,119.144022 C239.981363,116.381327 245.065913,115 250.863768,115 C256.109446,115 260.250705,116.15488 264.299999,118.464674 Z" id="Path" fill="#FF9D00" fill-rule="nonzero"></path>
                <polygon id="Combined-Shape" fill="#FFFFFF" fill-rule="nonzero" points="84.4000003 0 56.6000002 0 42.7000001 57.4761905 27.164706 0 1 0 28.8000001 85 56.6000002 85 70.5000002 27.5238096 84.4000003 85 112.2 85 140 0 113.835294 0 98.3000003 57.4761905"></polygon>
                <path d="M189.805604,26.8306451 C195.935232,33.3844414 199,42.3494055 199,53.7258065 C199,55.4569979 198.83389,56.4283131 198.728864,57.25 L153.825581,57.25 C154.806322,60.4650699 156.603608,63.2473032 158.851139,64.9784946 C161.098669,66.709686 163.816096,67.5752688 167.003503,67.5752688 C172.120065,67.5752688 176.867671,65.5902458 181.5,61.3571428 C181.5,61.3571428 194.116279,74.0892857 194.116279,74.0892857 C190.644627,77.9243553 186.696697,80.8908894 181.775832,82.9086021 C176.749537,84.9695444 171.130796,86 164.919439,86 C157.563886,86 151.189169,84.5779712 145.795096,81.7338709 C140.401023,78.8897707 136.253371,74.8916028 133.352014,69.7392473 C130.450657,64.5868918 129,58.5896399 129,51.7473118 C129,44.822546 130.471089,38.7428577 133.41331,33.5080645 C136.355531,28.2732713 140.482752,24.213276 145.795096,21.327957 C151.10744,18.4426379 157.236976,17 164.183888,17 C175.135489,17 183.675976,20.2768489 189.805604,26.8306451 Z M171.784588,37.155914 C169.904836,35.012534 167.453021,33.9408602 164.429072,33.9408602 C161.568579,33.9408602 159.198491,34.9713159 157.318739,37.032258 C155.438986,39.0932003 154.172215,41.8548214 153.518389,45.3172043 L174.481611,45.3172043 C174.563339,42.0196967 173.66434,39.2992939 171.784588,37.155914 Z" id="e" fill="#FFFFFF" fill-rule="nonzero"></path>
                <g id="api-reference" transform="translate(88.000000, 195.000000)" fill="#FF9D00" font-family="Helvetica" font-size="29" font-weight="normal">
                    <text id="API-Reference">
                        <tspan x="0" y="28">API Reference</tspan>
                    </text>
                </g>
            </g>
        </g>
    </g>
</svg>